<svg t="1716727318300" class="icon" viewBox="0 0 1262 1024" version="1.1" xmlns="http://www.w3.org/2000/svg" p-id="5263" width="200" height="200"><path d="M1260.36214 289.387262V196.833262L974.941121 13.665016s-49.879401-41.28906-49.879401 19.674653v138.553892z" fill="#B1282E" p-id="5264"></path><path d="M1260.36214 319.037795L925.615936 200.989879v214.481425h334.746204v-88.674491" fill="#D9651A" p-id="5265"></path><path d="M496.375977 110.929849v294.842683l428.685743 9.97588V200.989879l-348.047378-116.38527s-80.638365-31.590287-80.638365 26.32524z" fill="#CD291F" p-id="5266"></path><path d="M1260.36214 443.459191h-335.30042v324.493216l311.192042-78.698611a81.469689 81.469689 0 0 0 23.554162-29.650533c4.433725-13.578281 0.554216-216.144072 0.554216-216.144072z" fill="#448C69" p-id="5267"></path><path d="M496.375977 442.904975v445.31221L925.615936 775.988533V442.904975H496.375977z" fill="#055B74" p-id="5268"></path><path d="M0.075934 547.37461v476.62539L496.375977 886.831646V443.459191H98.449198A100.03591 100.03591 0 0 0 0.075934 547.37461z" fill="#03456C" p-id="5269"></path></svg>